<svg width="1072" height="294" viewBox="0 0 1072 294" fill="none" xmlns="http://www.w3.org/2000/svg">
<path d="M96.9961 237.713C122.045 237.713 142.699 231.268 159.252 218.523C175.805 205.779 184.008 188.934 184.008 168.133C184.008 150.555 176.391 135.613 168.041 127.264C163.793 123.016 157.787 119.061 149.73 115.105C141.674 111.15 135.082 108.514 129.955 106.902C124.828 105.291 117.357 103.094 107.836 100.311C100.365 98.2598 95.5312 96.9414 93.1875 96.209C90.6973 95.4766 86.5957 94.1582 80.7363 92.1074C74.7305 90.2031 70.6289 88.4453 68.4316 86.834C66.0879 85.3691 63.3047 83.3184 60.082 80.8281C53.6367 75.8477 51.7324 69.9883 51.7324 62.8105C51.7324 54.6074 55.248 47.7227 62.1328 42.1562C69.0176 36.7363 78.2461 33.9531 89.8184 33.9531C105.785 33.9531 120.141 38.4941 133.178 47.5762C146.215 56.6582 156.322 68.9629 163.5 84.6367L175.219 81.4141L159.691 21.9414H155.15L153.686 22.9668C151.781 24.1387 146.801 25.6035 141.967 25.6035C138.305 25.6035 130.688 23.9922 118.969 20.916C107.104 17.8398 95.8242 16.2285 84.9844 16.2285C63.5977 16.2285 45.5801 21.7949 30.9316 32.7812C16.1367 43.7676 8.8125 58.5625 8.8125 76.873C8.8125 84.0508 9.69141 90.4961 11.5957 96.209C15.1113 107.635 24.1934 116.57 31.6641 122.43C35.3262 125.506 40.5996 128.289 47.4844 130.926C54.3691 133.709 59.7891 135.76 63.7441 137.078C67.6992 138.543 73.5586 140.447 81.3223 142.938C88.3535 144.842 93.334 146.307 96.4102 147.332C99.3398 148.357 103.734 149.969 109.447 151.873C115.16 153.924 119.262 155.828 122.045 157.732C124.682 159.637 127.611 161.98 130.834 164.617C137.279 170.037 139.623 177.215 139.623 185.564C139.623 195.672 135.375 204.021 126.879 210.467C118.383 217.059 107.836 220.281 95.2383 220.281C77.5137 220.281 61.5469 214.861 47.0449 204.021C32.543 193.328 20.9707 179.119 12.3281 161.541L0.316406 165.936L17.1621 232H21.1172L23.168 230.828C25.5117 229.656 31.5176 227.459 37.2305 227.459C43.0898 227.459 52.3184 229.217 64.916 232.586C77.5137 235.955 88.207 237.713 96.9961 237.713ZM235.863 51.9707C243.48 51.9707 249.633 49.627 254.467 44.793C259.301 40.1055 261.645 34.6855 261.645 28.5332C261.645 22.2344 259.301 16.5215 254.467 11.6875C249.633 6.85352 243.48 4.36328 235.863 4.36328C228.1 4.36328 221.947 6.70703 217.406 11.3945C212.865 16.2285 210.668 21.9414 210.668 28.5332C210.668 34.9785 212.865 40.5449 217.406 45.0859C221.947 49.627 228.1 51.9707 235.863 51.9707ZM270.287 232L272.338 222.039C261.938 219.256 256.811 211.492 256.811 198.748V69.6953H252.855C237.182 80.8281 220.629 87.7129 203.051 90.3496L201.293 100.311C211.547 103.094 216.674 111.004 216.674 123.748V198.748C216.527 211.492 211.4 219.256 201.293 222.039L203.051 232H270.287ZM533.227 134.441C529.418 91.2285 511.254 69.6953 478.588 69.6953C459.691 69.6953 444.604 78.7773 433.617 96.9414H431.713C423.07 78.7773 407.982 69.6953 386.156 69.6953C367.553 69.6953 352.758 78.7773 341.479 96.9414H339.721L338.549 69.6953H334.594C318.334 81.707 302.514 89.0312 286.84 91.668L285.082 101.482C294.311 103.387 300.316 112.029 300.316 124.92V198.748C300.316 211.492 295.189 219.256 285.082 222.039L286.84 232H354.076L355.834 222.039C345.727 219.109 340.6 211.346 340.6 198.748V129.754C340.6 119.646 343.529 111.297 349.242 104.559C354.955 97.9668 362.133 94.5977 370.922 94.5977C388.939 94.5977 398.168 108.221 398.168 131.512V198.748C398.168 211.492 393.041 219.256 382.934 222.039L384.691 232H452.221L453.979 222.039C444.018 219.256 439.037 211.492 439.037 198.748V134.441V131.219V130.34C439.037 120.232 441.527 111.736 446.361 104.852C451.195 97.9668 457.787 94.5977 465.99 94.5977C483.129 94.5977 489.867 107.049 491.771 131.512L498.07 198.748C499.389 211.492 495.141 219.256 485.18 222.039L486.938 232H554.174L555.932 222.039C546.703 219.695 539.379 211.053 538.646 198.748L533.227 134.441ZM659.789 69.6953C640.746 69.6953 625.072 77.0195 612.768 91.668H611.156L609.398 69.6953H605.443C591.527 81.2676 576.146 88.4453 559.594 91.2285L557.543 101.482C566.771 103.387 572.777 112.029 572.777 124.92V259.832C572.777 273.016 567.797 280.779 557.836 283.27L559.594 293.523H626.83L628.295 283.27C618.188 280.633 613.061 272.869 613.061 259.832V215.447H614.525C626.83 230.242 642.504 237.713 661.547 237.713C683.227 237.713 700.658 229.949 713.988 214.275C727.318 198.602 733.91 178.68 733.91 154.217C733.91 129.9 726.879 109.686 712.963 93.7188C698.9 77.752 681.176 69.6953 659.789 69.6953ZM661.547 217.059C651.439 217.059 642.504 212.371 634.74 203.143C626.977 193.914 621.557 183.514 618.334 171.648C614.965 159.93 613.354 148.211 613.354 136.639C613.354 122.723 616.576 111.59 622.875 102.947C629.174 94.3047 637.377 90.0566 647.484 90.0566C657.445 90.0566 666.234 94.7441 673.852 103.973C681.469 113.348 687.035 124.041 690.404 135.906C693.773 147.918 695.531 159.49 695.531 170.77C695.531 183.953 692.309 194.939 686.01 203.729C679.711 212.664 671.508 217.059 661.547 217.059ZM817.553 232L819.311 222.039C809.203 219.109 804.076 211.346 804.076 198.748V53.4355C804.076 30.291 805.541 13.1523 808.617 1.87305L804.955 0.408203C789.281 11.3945 771.264 18.5723 750.609 22.2344L748.559 32.1953C758.666 34.6855 763.793 42.4492 763.793 55.6328V198.748C763.793 211.492 758.666 219.256 748.559 222.039L750.609 232H817.553ZM935.912 206.219C906.762 206.219 887.865 193.328 879.516 167.547L994.945 135.027L992.895 121.844C988.939 121.111 985.424 117.449 982.641 110.564C978.1 98.5527 970.043 88.7383 958.764 81.1211C947.338 73.5039 933.422 69.6953 917.016 69.6953C893.432 69.6953 873.656 77.3125 857.836 92.6934C842.016 108.074 834.105 128.289 834.105 153.045C834.105 176.922 842.016 196.99 857.982 213.25C873.949 229.51 894.018 237.713 918.48 237.713C938.109 237.713 954.369 232.146 967.406 221.014C980.443 210.027 987.768 196.99 989.525 181.902L980.883 178.533C977.074 185.711 971.068 192.156 963.012 197.723C954.955 203.436 945.873 206.219 935.912 206.219ZM912.475 89.4707C922.582 89.4707 930.785 93.5723 937.084 101.629C943.383 109.686 946.898 119.061 947.924 129.754L875.854 149.529C875.414 144.402 875.268 140.154 875.268 136.932C875.268 123.748 878.783 112.469 885.961 103.24C892.992 94.0117 901.781 89.4707 912.475 89.4707ZM1063.94 229.949C1069.36 224.822 1072 218.23 1072 210.467C1072 202.41 1069.36 195.818 1063.94 190.545C1058.52 185.418 1051.93 182.781 1044.16 182.781C1036.4 182.781 1029.81 185.418 1024.39 190.545C1018.97 195.818 1016.19 202.41 1016.19 210.467C1016.19 218.23 1018.97 224.676 1024.39 229.803C1029.81 235.076 1036.4 237.713 1044.16 237.713C1051.93 237.713 1058.52 235.076 1063.94 229.949Z" fill="url(#paint0_linear)"/>
<defs>
<linearGradient id="paint0_linear" x1="117" y1="157" x2="1098" y2="318.5" gradientUnits="userSpaceOnUse">
<stop offset="0.748145"/>
<stop offset="1" stop-color="white"/>
</linearGradient>
</defs>
</svg>
